<?xml version="1.0" encoding="UTF-8"?>
<svg xmlns="http://www.w3.org/2000/svg" version="1.1" width="100" height="100" viewBox="0 0 100 100"><rect x="0" y="0" width="100" height="100" fill="#ffffff"/><g transform="scale(4)"><g transform="translate(0,0)"><path fill-rule="evenodd" d="M9 0L9 1L8 1L8 2L9 2L9 3L8 3L8 4L10 4L10 7L11 7L11 4L12 4L12 9L11 9L11 8L6 8L6 9L9 9L9 13L10 13L10 14L11 14L11 15L10 15L10 16L13 16L13 15L14 15L14 16L15 16L15 18L12 18L12 19L11 19L11 20L12 20L12 19L13 19L13 20L14 20L14 21L15 21L15 20L16 20L16 22L13 22L13 21L10 21L10 18L9 18L9 16L8 16L8 19L9 19L9 20L8 20L8 25L10 25L10 24L12 24L12 23L15 23L15 24L16 24L16 22L17 22L17 24L19 24L19 25L20 25L20 24L21 24L21 23L22 23L22 25L25 25L25 24L24 24L24 23L25 23L25 21L23 21L23 22L20 22L20 21L22 21L22 20L21 20L21 16L22 16L22 17L23 17L23 16L24 16L24 18L22 18L22 19L25 19L25 15L23 15L23 14L22 14L22 15L21 15L21 14L20 14L20 11L21 11L21 10L16 10L16 8L15 8L15 6L14 6L14 5L13 5L13 4L14 4L14 3L15 3L15 5L16 5L16 7L17 7L17 5L16 5L16 3L15 3L15 2L17 2L17 1L16 1L16 0L15 0L15 2L14 2L14 1L11 1L11 2L10 2L10 0ZM12 2L12 3L14 3L14 2ZM10 3L10 4L11 4L11 3ZM8 5L8 7L9 7L9 5ZM13 6L13 7L14 7L14 6ZM0 8L0 9L5 9L5 8ZM13 8L13 10L11 10L11 9L10 9L10 11L13 11L13 10L14 10L14 12L13 12L13 14L12 14L12 15L13 15L13 14L15 14L15 13L14 13L14 12L16 12L16 13L17 13L17 11L15 11L15 8ZM17 8L17 9L18 9L18 8ZM19 8L19 9L20 9L20 8ZM21 8L21 9L22 9L22 8ZM23 8L23 10L22 10L22 11L23 11L23 10L24 10L24 11L25 11L25 10L24 10L24 8ZM1 10L1 12L0 12L0 17L1 17L1 13L4 13L4 14L3 14L3 15L5 15L5 16L6 16L6 17L7 17L7 16L6 16L6 15L8 15L8 14L5 14L5 13L8 13L8 12L5 12L5 11L4 11L4 10L3 10L3 11L4 11L4 12L2 12L2 10ZM6 10L6 11L8 11L8 10ZM4 12L4 13L5 13L5 12ZM10 12L10 13L12 13L12 12ZM18 12L18 14L19 14L19 15L17 15L17 14L16 14L16 15L17 15L17 16L19 16L19 15L20 15L20 16L21 16L21 15L20 15L20 14L19 14L19 12ZM23 12L23 13L25 13L25 12ZM22 15L22 16L23 16L23 15ZM2 16L2 17L4 17L4 16ZM17 17L17 20L20 20L20 17ZM15 18L15 19L14 19L14 20L15 20L15 19L16 19L16 18ZM18 18L18 19L19 19L19 18ZM17 21L17 22L19 22L19 21ZM9 22L9 23L12 23L12 22ZM23 22L23 23L24 23L24 22ZM19 23L19 24L20 24L20 23ZM0 0L0 7L7 7L7 0ZM1 1L1 6L6 6L6 1ZM2 2L2 5L5 5L5 2ZM18 0L18 7L25 7L25 0ZM19 1L19 6L24 6L24 1ZM20 2L20 5L23 5L23 2ZM0 18L0 25L7 25L7 18ZM1 19L1 24L6 24L6 19ZM2 20L2 23L5 23L5 20Z" fill="#000000"/></g></g></svg>
